<svg id="Capa_2" data-name="Capa 2" xmlns="http://www.w3.org/2000/svg" viewBox="0 0 776.35 776.35"><defs><style>.cls-1,.cls-3{fill:#709777;}.cls-1{stroke:#ecee99;stroke-miterlimit:10;stroke-width:10px;}.cls-2{fill:#ecee99;}</style></defs><circle class="cls-1" cx="388.18" cy="388.18" r="383.18"/><path class="cls-2" d="M1131.42,378.41s56-18,36-88-16-56-11-88c0,0-148,95-32,202,0,0-17.08-62.63,1.46-108.32C1125.88,296.09,1120.42,318.41,1131.42,378.41Z" transform="translate(-551.08 -107.74)"/><path class="cls-2" d="M1075.08,481.71s-51.08,58-124.9-2.81-56.59-63.72-97.76-74.49c0,0,189.67-113.42,257.65,82.51,0,0-61.89-59.87-126.65-61.51C983.42,425.41,1008.58,437,1075.08,481.71Z" transform="translate(-551.08 -107.74)"/><path class="cls-2" d="M852,522.91c-26.41-15.5-75.27,0-75.27,0s-2.32-59.5-4.09-118.5c-1-34-7.25-46.74-12.34-51.43a8.71,8.71,0,0,0-6-2.68l-.41-.23a42,42,0,1,1,47.31-4.33c-5.25,21.89,4.19,36.67,4.19,36.67Z" transform="translate(-551.08 -107.74)"/><circle class="cls-2" cx="414.34" cy="147.68" r="16"/><circle class="cls-2" cx="478.84" cy="199.18" r="20.5"/><circle class="cls-2" cx="379.84" cy="224.18" r="24.5"/><path class="cls-2" d="M1097.69,577A187.57,187.57,0,0,1,914.92,722.41c-94.69,0-173-70.2-185.69-161.39,15.2-14.59,69.23-50.42,201.19.39C1043.4,604.92,1083.7,589.83,1097.69,577Z" transform="translate(-551.08 -107.74)"/><path class="cls-2" d="M1166.42,548.41c0,133.1-103.2,241-230.5,241-118.79,0-216.59-93.95-229.14-214.67,24.85,102.89,109.74,178.67,210.64,178.67,109.09,0,199.46-88.58,215.48-204.23C1126.55,386,1000.56,342.79,996.52,341.44c60.64,15,100.35,50.79,126.34,90.18,25.18,38.15,37.48,79.67,43.43,108.92C1166.38,543.15,1166.42,545.78,1166.42,548.41Z" transform="translate(-551.08 -107.74)"/><path class="cls-3" d="M776.42,279.41s48.36,7,25.68,52.5C802.1,331.91,809.42,292.41,776.42,279.41Z" transform="translate(-551.08 -107.74)"/></svg>