<svg id="Capa_2" data-name="Capa 2" xmlns="http://www.w3.org/2000/svg" viewBox="0 0 766.35 766.35"><defs><style>.cls-1{fill:#709777;}.cls-2{fill:#ecee99;}</style></defs><circle class="cls-1" cx="383.18" cy="383.18" r="383.18"/><path class="cls-2" d="M1169.43,443.24s66.6-18.69,42.82-91.36-19-58.14-13.09-91.36c0,0-176,98.62-38.06,209.71,0,0-20.31-65,1.74-112.45C1162.84,357.78,1156.35,381,1169.43,443.24Z" transform="translate(-557.7 -130.22)"/><path class="cls-2" d="M1102.42,550.48s-60.75,60.24-148.55-2.92-67.31-66.15-116.27-77.33c0,0,225.59-117.75,306.44,85.66,0,0-73.62-62.16-150.64-63.86C993.4,492,1023.33,504,1102.42,550.48Z" transform="translate(-557.7 -130.22)"/><path class="cls-2" d="M821.38,587.33c-35.06-18.18-98.18,6.19-98.18,6.19s-3.08-69.79-5.42-139c-1.36-39.86-9.63-54.82-16.38-60.32a12.4,12.4,0,0,0-7.94-3.15,4.53,4.53,0,0,1-.54-.27c-17-8.42-28.54-24.52-28.54-43,0-27.21,25-49.26,55.74-49.26s55.75,22.05,55.75,49.26c0,15.26-7.84,28.89-20.16,37.92-7,25.68,5.56,43,5.56,43Z" transform="translate(-557.7 -130.22)"/><ellipse class="cls-2" cx="401.11" cy="134.05" rx="24.52" ry="21.41"/><ellipse class="cls-2" cx="483.97" cy="223.95" rx="31.42" ry="27.43"/><ellipse class="cls-2" cx="358.23" cy="243.4" rx="37.55" ry="32.78"/><path class="cls-2" d="M1129.31,649.36c-22.69,86.49-111.41,151-217.38,151-112.62,0-205.75-72.88-220.85-167.55,18.08-15.15,82.34-52.35,239.29.4C1064.74,678.39,1112.67,662.73,1129.31,649.36Z" transform="translate(-557.7 -130.22)"/><path class="cls-2" d="M1211.06,619.73c0,138.18-122.75,250.2-274.15,250.2-141.29,0-257.61-97.54-272.53-222.87C693.93,753.88,794.9,832.55,914.91,832.55c129.74,0,237.22-92,256.28-212-7.55-169.41-157.4-214.27-162.21-215.68,72.13,15.58,119.36,52.73,150.27,93.63,30,39.6,44.57,82.71,51.65,113.08C1211,614.27,1211.06,617,1211.06,619.73Z" transform="translate(-557.7 -130.22)"/><path class="cls-1" d="M722.78,307.9s64.19,8.21,34.09,61.58C756.87,369.48,766.58,323.15,722.78,307.9Z" transform="translate(-557.7 -130.22)"/></svg>